<svg xmlns="http://www.w3.org/2000/svg" width="16.772" height="18.27" viewBox="0 0 16.772 18.27">
  <path id="baidu" d="M45.136,9.627c1.987-.427,1.716-2.8,1.656-3.32-.1-.8-1.038-2.2-2.316-2.088-1.608.144-1.843,2.467-1.843,2.467-.217,1.074.521,3.367,2.5,2.94Zm2.11,4.129a1.681,1.681,0,0,0-.076.965,1.1,1.1,0,0,0,.945.871h1.04V13.05H48.042a1.22,1.22,0,0,0-.8.706Zm1.577-8.11c1.1,0,1.984-1.263,1.984-2.824S49.921,0,48.824,0s-1.984,1.262-1.984,2.822S47.728,5.646,48.824,5.646Zm4.726.187c1.466.19,2.409-1.375,2.6-2.561a2.667,2.667,0,0,0-1.793-2.8C53.313.236,52.014,1.9,51.9,2.989,51.754,4.317,52.085,5.644,53.549,5.832ZM57.142,12.8a20.221,20.221,0,0,1-3.594-3.653c-1.8-2.8-4.346-1.659-5.2-.236a11.815,11.815,0,0,1-2.361,2.56c-.191.234-2.741,1.611-2.174,4.125a2.741,2.741,0,0,0,2.554,2.465,11.14,11.14,0,0,0,3.165-.236,6.676,6.676,0,0,1,3.164.094s3.972,1.33,5.059-1.23a3.2,3.2,0,0,0-.614-3.889Zm-6.8,3.811H47.764A2.265,2.265,0,0,1,46.149,15.5a2.948,2.948,0,0,1-.2-1.784A2.264,2.264,0,0,1,47.8,12.047h1.375v-1.69l1.171.018v6.24Zm4.809-.018H52.184c-1.152-.3-1.205-1.115-1.205-1.115V12.2l1.205-.02V15.13c.074.315.465.372.465.372h1.224V12.2h1.282v4.4Zm4.206-8.773a2.3,2.3,0,0,0-2.22-2.276c-1.751,0-1.985,1.613-1.985,2.753,0,1.088.092,2.607,2.267,2.559s1.938-2.465,1.938-3.035Zm0,0" transform="translate(-42.598 0)" fill="#bbb"/>
</svg>
