<svg xmlns="http://www.w3.org/2000/svg" width="18.836" height="17.213" viewBox="0 0 18.836 17.213">
  <path id="bilibili" d="M100.612,116.389a1.177,1.177,0,0,1,0,1.665l-1.076,1.076h1.1a3.532,3.532,0,0,1,3.532,3.533v7.063a3.532,3.532,0,0,1-3.532,3.532H88.865a3.532,3.532,0,0,1-3.532-3.532v-7.063a3.532,3.532,0,0,1,3.532-3.532h1.1l-1.075-1.076a1.177,1.177,0,1,1,1.664-1.665l2.5,2.5a1.163,1.163,0,0,1,.186.242h3.026a1.148,1.148,0,0,1,.187-.243l2.5-2.5a1.177,1.177,0,0,1,1.665,0Zm.025,5.1H88.865a1.177,1.177,0,0,0-1.174,1.09l0,.089v7.063a1.176,1.176,0,0,0,1.09,1.173l.088,0h11.772a1.177,1.177,0,0,0,1.174-1.09l0-.088v-7.063a1.178,1.178,0,0,0-1.177-1.177Zm-9.418,2.354a1.178,1.178,0,0,1,1.177,1.177V126.2a1.177,1.177,0,1,1-2.354,0v-1.177a1.178,1.178,0,0,1,1.177-1.177Zm7.063,0a1.178,1.178,0,0,1,1.177,1.177V126.2a1.177,1.177,0,1,1-2.354,0v-1.177a1.178,1.178,0,0,1,1.177-1.177Z" transform="translate(-85.333 -116.044)" fill="#bbb"/>
</svg>
