<svg id="chrome" xmlns="http://www.w3.org/2000/svg" width="19.373" height="19.375" viewBox="0 0 19.373 19.375">
  <path id="chrome-2" data-name="chrome" d="M9.653,0a9.616,9.616,0,0,1,4.875,1.3,9.713,9.713,0,0,1,3.8,4.021L10.312,4.9A5.1,5.1,0,0,0,5.135,8.183L2.152,3.6A9.679,9.679,0,0,1,9.654,0ZM1.578,4.378l3.643,7.167a5.114,5.114,0,0,0,5.448,2.832L8.183,19.252a9.692,9.692,0,0,1-6.6-14.874ZM18.722,6.205A9.69,9.69,0,0,1,9.145,19.36l4.378-6.734a5.123,5.123,0,0,0-.259-6.14Zm-9.036.216A3.265,3.265,0,1,1,6.421,9.686,3.262,3.262,0,0,1,9.685,6.421Z" transform="translate(0 0)" fill="#bbb"/>
</svg>
