<svg xmlns="http://www.w3.org/2000/svg" width="18.445" height="18.583" viewBox="0 0 18.445 18.583">
  <path id="github" d="M145.348,123.113a1.025,1.025,0,0,0-.546-.565c-.209-.09-2.059-.8-4.811.941h-5.538c-2.756-1.744-4.6-1.031-4.811-.941a1.03,1.03,0,0,0-.546.564,7.2,7.2,0,0,0-.189,4.248,4.918,4.918,0,0,0-.908,3.3c0,4.272,3.053,5.473,5.445,5.915a4.554,4.554,0,0,0-.313,1.118,1.066,1.066,0,0,0-.009.14v.927a2.68,2.68,0,0,1-1.325-.627c-1.155-1.155-2.35-2.35-3.8-2.35v2.049c.6,0,1.57.969,2.35,1.749a5.443,5.443,0,0,0,3.684,1.327c.075,0,.129,0,.157,0a1.025,1.025,0,0,0,.983-1.024v-1.972a2.823,2.823,0,0,1,.671-1.354,1.025,1.025,0,0,0-.555-1.791c-3.318-.378-5.239-1.172-5.239-4.106a2.816,2.816,0,0,1,.758-2.385A1.032,1.032,0,0,0,131,127.2a5.489,5.489,0,0,1-.156-2.823,4.545,4.545,0,0,1,2.731.984,1.019,1.019,0,0,0,.574.176H140.3a1.025,1.025,0,0,0,.575-.176,4.709,4.709,0,0,1,2.73-.988,5.494,5.494,0,0,1-.154,2.826,1.025,1.025,0,0,0,.193,1.079,2.807,2.807,0,0,1,.755,2.382c0,2.944-1.92,3.735-5.237,4.1a1.025,1.025,0,0,0-.555,1.794,1.579,1.579,0,0,1,.669,1.274v3.074h2.049v-3.074a3.489,3.489,0,0,0-.235-1.276c2.33-.459,5.358-1.709,5.358-5.9a4.914,4.914,0,0,0-.907-3.3,7.2,7.2,0,0,0-.19-4.246Z" transform="translate(-128 -122.328)" fill="#bbb"/>
</svg>
