<svg xmlns="http://www.w3.org/2000/svg" width="17.899" height="17.913" viewBox="0 0 17.899 17.913">
  <path id="google" d="M99.013,95.642a4.93,4.93,0,0,1-4.026,3.516,5.5,5.5,0,0,1-6.263-4.876,5.368,5.368,0,0,1,5.368-5.8,5.475,5.475,0,0,1,2.031.394.447.447,0,0,0,.573-.188l1.288-2.371a.465.465,0,0,0-.206-.626,8.947,8.947,0,0,0-12.634,8.419,9.055,9.055,0,0,0,8.563,8.688,8.947,8.947,0,0,0,9.332-8.482V92.529a.456.456,0,0,0-.447-.447H94.539a.447.447,0,0,0-.447.447v2.684a.447.447,0,0,0,.447.447h4.474" transform="translate(-85.14 -84.897)" fill="#bbb"/>
</svg>
