<svg id="iqiyi" xmlns="http://www.w3.org/2000/svg" width="20.564" height="16.929" viewBox="0 0 20.564 16.929">
  <path id="路径_14" data-name="路径 14" d="M241.712,352.112a4.416,4.416,0,0,0,2.345.384c.1-.008.179-.022.208.115a.775.775,0,0,0,.766.684,9.92,9.92,0,0,0,1.1.023c.15,0,.222-.074.226-.225.005-.175,0-.35,0-.525s-.071-.246-.258-.247c-.211,0-.421,0-.632,0a.306.306,0,0,1-.213-.047c.031-.053.08-.056.119-.076a1.237,1.237,0,0,0,.8-1.132q.006-3.087,0-6.175a1.17,1.17,0,0,0-.483-.961,2.15,2.15,0,0,0-.807-.354,5.765,5.765,0,0,0-2.1-.1,2.576,2.576,0,0,0-1.071.337,1.266,1.266,0,0,0-.69,1.147c.008,2.018,0,4.036,0,6.054A1.134,1.134,0,0,0,241.712,352.112Zm1.262-7.041a1.134,1.134,0,0,1,.013-.214.368.368,0,0,1,.259-.3,1.2,1.2,0,0,1,.7-.013.313.313,0,0,1,.259.332c.007.148,0,.3,0,.444q0,1.324,0,2.649,0,1.472,0,2.945c0,.374-.1.486-.471.53a.87.87,0,0,1-.572-.094.383.383,0,0,1-.189-.308c-.005-.058,0-.116,0-.175Q242.974,347.969,242.974,345.071Z" transform="translate(-237.963 -339.534)" fill="#bbb"/>
  <path id="路径_15" data-name="路径 15" d="M127.048,201.5c.547,0,1.094,0,1.641,0,.119,0,.163-.042.178-.16a1.193,1.193,0,0,1,.8-1.065,2.6,2.6,0,0,1,.483-.118,42.886,42.886,0,0,1,5.017-.453c.609-.021,1.219-.007,1.829-.025.474-.014.95.008,1.425.017.3.006.591.011.887.02.986.029,1.969.1,2.95.2.682.07,1.363.151,2.039.269a1.235,1.235,0,0,1,1.127,1.167c.016.118.068.147.175.147.547,0,1.094,0,1.641,0,.128,0,.166-.049.155-.169a6.033,6.033,0,0,0-.138-.9,2.148,2.148,0,0,0-1.709-1.714,23.966,23.966,0,0,0-2.667-.422c-.655-.072-1.311-.122-1.968-.17q-1.16-.084-2.322-.122c-.484-.015-.969,0-1.453,0-.811,0-1.623-.01-2.433.047-.527.037-1.056.053-1.583.092-.809.06-1.616.132-2.421.237a15.921,15.921,0,0,0-2.18.4,1.987,1.987,0,0,0-1.346,1.215,4.3,4.3,0,0,0-.284,1.377C126.886,201.482,126.956,201.5,127.048,201.5Z" transform="translate(-126.886 -197.992)" fill="#bbb"/>
  <path id="路径_16" data-name="路径 16" d="M148.018,698.733c-.542.009-1.085.018-1.627.016-.128,0-.164.039-.183.163a1.182,1.182,0,0,1-.569.941,1.943,1.943,0,0,1-.647.216c-1.249.2-2.506.326-3.768.4-.689.042-1.379.07-2.068.079-.829.011-1.659.006-2.488-.009-1.1-.02-2.2-.071-3.3-.169-.839-.076-1.676-.172-2.508-.306a1.577,1.577,0,0,1-.788-.322,1.323,1.323,0,0,1-.422-.875c-.012-.079-.032-.122-.123-.118-.381.016-.761-.034-1.1-.015-.241,0-.433,0-.626,0-.092,0-.129.042-.123.133a4.37,4.37,0,0,0,.253,1.3,2,2,0,0,0,1.376,1.291,14.416,14.416,0,0,0,1.913.368c1.27.174,2.548.266,3.827.349.895.058,1.792.066,2.687.075.927.008,1.855-.006,2.782-.067.514-.034,1.029-.053,1.543-.092.786-.059,1.571-.132,2.353-.234a15.375,15.375,0,0,0,2.165-.406,1.979,1.979,0,0,0,1.315-1.2,4.274,4.274,0,0,0,.288-1.362C148.2,698.766,148.135,698.732,148.018,698.733Z" transform="translate(-127.651 -685.325)" fill="#bbb"/>
  <path id="路径_17" data-name="路径 17" d="M581.778,356.217q.7-1.955,1.406-3.91c.078-.217.007-.318-.223-.319q-.72,0-1.439,0c-.184,0-.224.031-.28.208q-.265.84-.525,1.682c-.118.385-.231.771-.355,1.189-.02-.07-.03-.1-.04-.138-.253-.916-.543-1.821-.828-2.728-.056-.177-.1-.212-.279-.212q-.733,0-1.466,0c-.209,0-.284.114-.213.308l.2.556c.454,1.261.9,2.526,1.368,3.781a3.918,3.918,0,0,1,.287,1.568c-.029.707-.008,1.417-.007,2.125,0,.244.061.3.3.3h1.359c.243,0,.282-.039.282-.28q0-1.359,0-2.717a.754.754,0,0,1,.036-.265Q581.572,356.793,581.778,356.217Z" transform="translate(-565.437 -347.863)" fill="#bbb"/>
  <path id="路径_18" data-name="路径 18" d="M478.183,352.009h-1.319c-.27,0-.322.053-.322.323q0,2,0,4,0,2.018,0,4.037c0,.228.061.286.288.287h1.359c.264,0,.316-.051.316-.313q0-1.258,0-2.516,0-2.745,0-5.49C478.505,352.063,478.451,352.009,478.183,352.009Z" transform="translate(-467.173 -347.885)" fill="#bbb"/>
  <path id="路径_19" data-name="路径 19" d="M823.815,352h-1.359c-.243,0-.292.049-.292.29q0,2.018,0,4.035t0,4.049c0,.22.047.267.269.268h1.385c.229,0,.286-.055.286-.287q0-4.035,0-8.071C824.1,352.062,824.045,352,823.815,352Z" transform="translate(-803.542 -347.88)" fill="#bbb"/>
  <path id="路径_20" data-name="路径 20" d="M126.808,455.355c.507,0,1.013,0,1.52,0a.186.186,0,0,0,.2-.187,1.45,1.45,0,0,0,0-.161q0-1.338,0-2.677,0-1.372,0-2.744c0-.222-.046-.267-.27-.267h-1.4c-.232,0-.272.041-.272.276q0,1.6,0,3.2,0,1.157,0,2.314C126.6,455.288,126.651,455.354,126.808,455.355Z" transform="translate(-126.595 -442.591)" fill="#bbb"/>
  <path id="路径_21" data-name="路径 21" d="M126.584,353.736a.193.193,0,0,0,.214.22q.747,0,1.493,0c.16,0,.231-.072.232-.233q0-.747,0-1.493c0-.162-.07-.232-.231-.233q-.74,0-1.48,0c-.165,0-.227.069-.228.232,0,.247,0,.493,0,.74S126.581,353.48,126.584,353.736Z" transform="translate(-126.583 -347.871)" fill="#bbb"/>
</svg>
