<svg xmlns="http://www.w3.org/2000/svg" width="19.966" height="15.298" viewBox="0 0 19.966 15.298">
  <path id="taobao" d="M54.787,156.813a14.244,14.244,0,0,1-1.625,3.233,6.732,6.732,0,0,1-.742.883l-.3.3.861.491.859.489.186-.181c.226-.223.742-.8,1-1.107l.186-.228.5-.211c.275-.117.531-.223.568-.238l.067-.025-.092.169a16.559,16.559,0,0,1-1.65,2.452,1.73,1.73,0,0,0-.194.248c0,.012.233.223.519.469l.516.447-.543.007-.543,0v1.241h3.5v2.96l-.228-.017a1.618,1.618,0,0,1-1.042-.357c-.2-.226-.258-.628-.184-1.33.022-.2.04-.412.04-.464v-.1H55.234a7.451,7.451,0,0,0-1.258.032c-.067.05-.109.347-.127.886a3.951,3.951,0,0,0,.107,1.226,2.181,2.181,0,0,0,1.744,1.737,4.992,4.992,0,0,0,1.179.05,12.014,12.014,0,0,0,1.323-.042,8.69,8.69,0,0,0,3.973-1.325,1.223,1.223,0,0,1,.278-.161c.01.01.089.3.181.638s.169.623.174.628.454-.176,1-.4a7.357,7.357,0,0,0,.983-.442c-.007-.04-1.315-3.251-1.33-3.263s-1.6.474-1.615.494.057.253.139.553.146.553.146.566a3.524,3.524,0,0,1-.643.4,8.019,8.019,0,0,1-.739.31s-.007-.581-.007-1.29v-1.29h3.424v-1.241H60.738v-1.538h3.449v-1.241H58.08l.136-.169a4.3,4.3,0,0,0,.73-1.161c-.007-.007-.218-.067-.469-.134s-.479-.134-.506-.144a12.625,12.625,0,0,1,2.084-.672,6.8,6.8,0,0,1,3.536-.174,1.818,1.818,0,0,1,.782.481,1.314,1.314,0,0,1,.328.434,2.352,2.352,0,0,1,.231.814c.02.169.025,1.429.02,4.174l-.007,3.933-.069.221a1.807,1.807,0,0,1-.524.876,2.211,2.211,0,0,1-1.593.529,3.988,3.988,0,0,1-1.042-.161,7.651,7.651,0,0,0-.757-.141c-.02.02-.345,1.33-.345,1.382s.082.067.546.161a8.211,8.211,0,0,0,1.985.186,5.279,5.279,0,0,0,1.672-.166,3.488,3.488,0,0,0,2.792-3.171c.087-.685.166-1.807.2-2.879a28.5,28.5,0,0,0-.278-5.161,2.584,2.584,0,0,0-.466-1.184c-.988-1.4-3.176-1.983-6.169-1.645a26.292,26.292,0,0,0-3.792.759.935.935,0,0,1-.233.05,2.308,2.308,0,0,1,.149-.305,4.247,4.247,0,0,0,.424-.9c-.022-.02-2.434-.7-2.479-.7a2.517,2.517,0,0,0-.181.439Zm3.072,6.434v.769H55.472l.752-.767.754-.769h.442l.439,0Zm-6.921-6.573a1.757,1.757,0,0,0-1.38,1.213,1.57,1.57,0,0,0,.022.809,1.878,1.878,0,0,0,2.856.816,1.521,1.521,0,0,0,.667-1.253,1.434,1.434,0,0,0-.457-1.07,1.776,1.776,0,0,0-.931-.506A2.737,2.737,0,0,0,50.938,156.674Zm-1.677,4.69c-.3.464-.548.856-.553.873s.459.32,1.03.673c1.37.851,1.285.792,1.5,1A1.466,1.466,0,0,1,51.256,166a24.819,24.819,0,0,1-2.9,3.142,6.1,6.1,0,0,0-.489.486c.01.025,2.67,1.682,2.7,1.682.012,0,.045-.047.069-.107.1-.226.764-1.645,1.251-2.663.28-.586.556-1.184.613-1.328a13.434,13.434,0,0,0,.65-2.218,4.708,4.708,0,0,0,.027-.6,1.948,1.948,0,0,0-.055-.6,2.345,2.345,0,0,0-.335-.717,15.8,15.8,0,0,0-1.439-1.409c-.318-.266-1.449-1.127-1.509-1.149a6.8,6.8,0,0,0-.578.834Z" transform="translate(-47.864 -156.373)" fill="#bbb"/>
</svg>
