<svg id="tencentvideo" xmlns="http://www.w3.org/2000/svg" width="19.345" height="18.359" viewBox="0 0 19.345 18.359">
  <path id="路径_22" data-name="路径 22" d="M3.487,29.686c-.124-.031-.242-.055-.355-.071a2.46,2.46,0,0,0-1.565.286A1.964,1.964,0,0,0,.435,31.269a16.667,16.667,0,0,0-.4,3.542c-.047,1.231-.047,2.247,0,3.478a16.665,16.665,0,0,0,.4,3.542A1.964,1.964,0,0,0,1.568,43.2a2.46,2.46,0,0,0,1.565.286c.113-.016.231-.04.355-.071a19.922,19.922,0,0,1-.343-3.142c-.1-2.142-.1-5.3,0-7.444a19.922,19.922,0,0,1,.343-3.142Zm0,13.728a22.094,22.094,0,0,0,2.257-.8C6.847,42.192,8.2,41.7,9.629,41a27.1,27.1,0,0,0,3.9-2.337c.961-.717,1.377-1.236,1.377-2.11s-.416-1.393-1.377-2.11a27.111,27.111,0,0,0-3.9-2.337c-1.429-.7-2.783-1.194-3.885-1.616a22.067,22.067,0,0,0-2.257-.8,5.446,5.446,0,0,1,.228-.791,1.98,1.98,0,0,1,.916-1.111,1.947,1.947,0,0,1,1.5-.389,16.985,16.985,0,0,1,2.989,1.079,26.656,26.656,0,0,1,4.459,2.1,25.463,25.463,0,0,1,4.716,3.747,2.884,2.884,0,0,1,0,4.455,25.463,25.463,0,0,1-4.716,3.747,26.653,26.653,0,0,1-4.459,2.1,17,17,0,0,1-2.989,1.079,1.947,1.947,0,0,1-1.5-.389A1.98,1.98,0,0,1,3.715,44.2a5.449,5.449,0,0,1-.228-.791Z" transform="translate(0.001 -27.371)" fill="#bbb"/>
  <path id="路径_23" data-name="路径 23" d="M308.492,333.912l-3.632-2.772a.655.655,0,0,0-1.052.521V337.2a.655.655,0,0,0,1.052.521l3.632-2.772A.655.655,0,0,0,308.492,333.912Z" transform="translate(-298.054 -325.253)" fill="#bbb"/>
</svg>
