<svg xmlns="http://www.w3.org/2000/svg" width="17.927" height="17.927" viewBox="0 0 17.927 17.927">
  <path id="translate" d="M74.884,71.043h5.762a1.278,1.278,0,0,1,1.281,1.281v8.323a1.278,1.278,0,0,1-1.281,1.281H72.323a1.278,1.278,0,0,1-1.281-1.281V74.884H65.281A1.278,1.278,0,0,1,64,73.6V65.281A1.278,1.278,0,0,1,65.281,64H73.6a1.278,1.278,0,0,1,1.281,1.281Zm0,1.281V73.6A1.278,1.278,0,0,1,73.6,74.884H72.323v5.123a.639.639,0,0,0,.64.64h7.044a.64.64,0,0,0,.64-.64V72.964a.64.64,0,0,0-.64-.64H74.884Zm-9.6-6.4v7.044a.639.639,0,0,0,.64.64h7.044a.64.64,0,0,0,.64-.64V65.921a.64.64,0,0,0-.639-.64H65.921a.64.64,0,0,0-.64.64Zm1.281,4.888V67.589h2.256V66.241h.935c.128.019.193.036.193.055a.211.211,0,0,1-.028.083,1.486,1.486,0,0,0-.083.522v.688h2.394v3.137H71.211v-.413H69.835v2.366h-.99V70.312H67.5v.5ZM67.5,68.36v1.21h1.348V68.36H67.5Zm3.715,1.21V68.36H69.835v1.21h1.376Zm4.078,9.764H74.244l1.843-5.089h1.293l1.788,5.09h-1.1l-.385-1.074H75.675l-.385,1.073Zm.661-1.926h1.458l-.688-2.173h-.028Zm4.7-8.286H79.366a2.561,2.561,0,0,0-2.561-2.561V65.281A3.842,3.842,0,0,1,80.647,69.122ZM65.281,76.805h1.281a2.561,2.561,0,0,0,2.561,2.561v1.281A3.842,3.842,0,0,1,65.281,76.805Z" transform="translate(-64 -64)" fill="#bbb"/>
</svg>
