<svg xmlns="http://www.w3.org/2000/svg" width="19.024" height="16.957" viewBox="0 0 19.024 16.957">
  <path id="viki" d="M115.367,163.3h-6.2l-1.65,1.242-1.65-1.242H99.655A1.654,1.654,0,0,0,98,164.955V177.36a1.654,1.654,0,0,0,1.655,1.655h6.211l1.65,1.242,1.65-1.242h6.2a1.654,1.654,0,0,0,1.655-1.655V164.955A1.657,1.657,0,0,0,115.367,163.3Zm-8.952,14.06H99.652V164.955h2.067v3.928a1.034,1.034,0,0,0,2.067,0v-3.928h1.524l1.208.91.578.435v11.573l-.238-.179Zm8.952,0h-6.756l-.442.332-.245.186V166.3l.584-.44,1.208-.91h5.652Z" transform="translate(-98 -163.3)" fill="#bbb"/>
</svg>
