<svg id="weibo" xmlns="http://www.w3.org/2000/svg" width="24.307" height="19.422" viewBox="0 0 24.307 19.422">
  <path id="路径_24" data-name="路径 24" d="M83.3,265.854c-.947-.184-.487-.693-.487-.693a2.239,2.239,0,0,0-.182-2.633c-1.374-1.372-4.712.175-4.712.175-1.274.4-.936-.179-.757-1.162,0-1.154-.4-3.11-3.79-1.954s-6.305,5.23-6.305,5.23c-2.027,2.7-1.757,4.79-1.757,4.79.505,4.611,5.405,5.878,9.217,6.178,4.01.316,9.422-1.383,11.063-4.868a3.354,3.354,0,0,0-2.289-5.063Zm-8.476,8.63c-3.98.185-7.2-1.81-7.2-4.467s3.218-4.792,7.2-4.974,7.208,1.458,7.208,4.111-3.225,5.149-7.208,5.331Zm0,0" transform="translate(-65.296 -256.401)" fill="#bbb"/>
  <path id="路径_25" data-name="路径 25" d="M259.077,535.67a3.756,3.756,0,0,0-3.541,4.219,2.068,2.068,0,0,0,1.073,1.792,4.642,4.642,0,0,0,5.973-1.074c1.22-1.573.5-5.4-3.505-4.937Zm-1.01,5.264a1.091,1.091,0,0,1-1.35-.967A1.434,1.434,0,0,1,258,538.612c.859-.08,1.418.415,1.418,1.04a1.446,1.446,0,0,1-1.35,1.282Zm2.359-2.009a.463.463,0,0,1-.7-.065.586.586,0,0,1,.169-.761.485.485,0,0,1,.739.064.623.623,0,0,1-.21.763Zm0,0" transform="translate(-250.344 -525.277)" fill="#bbb"/>
  <path id="路径_26" data-name="路径 26" d="M669.723,288.814a.65.65,0,0,0,.642-.55.254.254,0,0,0,.009-.07c.49-4.4-3.6-3.639-3.6-3.639a.657.657,0,0,0,0,1.314c2.939-.648,2.291,2.291,2.291,2.291a.656.656,0,0,0,.66.654Zm0,0" transform="translate(-649.771 -280.983)" fill="#bbb"/>
  <path id="路径_27" data-name="路径 27" d="M635.031,155.227a8.147,8.147,0,0,0-3.276.031c-.033,0-.062.033-.09.039a.048.048,0,0,0-.024.018.958.958,0,0,0,.26,1.88,4.466,4.466,0,0,0,.864-.206,5.026,5.026,0,0,1,4.731,2.341,4.254,4.254,0,0,1,.294,3.169,2.816,2.816,0,0,0-.188.92.874.874,0,0,0,.951.858c.439,0,.809-.059.917-.8h.006c1.562-5.206-1.911-7.654-4.443-8.244Zm0,0" transform="translate(-615.558 -155.069)" fill="#bbb"/>
</svg>
