<svg id="youtube" xmlns="http://www.w3.org/2000/svg" width="21.824" height="16.913" viewBox="0 0 21.824 16.913">
  <path id="路径_12" data-name="路径 12" d="M103.447,181.487c-1.426-.1-3.721-.154-6.3-.154-2.543,0-4.9.058-6.313.154-4.569.312-4.585,4.013-4.606,8.308.021,4.284.037,7.984,4.607,8.3,1.413.095,3.776.153,6.322.153h0c2.574,0,4.865-.056,6.288-.153,4.569-.313,4.585-4.014,4.606-8.309-.022-4.285-.039-7.986-4.607-8.3Zm-.149,14.428c-1.354.093-3.65.148-6.139.148h0c-2.5,0-4.808-.056-6.174-.148-2.03-.14-2.548-.759-2.572-6.12.024-5.372.542-5.993,2.572-6.13,1.363-.094,3.667-.15,6.164-.15s4.791.056,6.15.15c2.03.137,2.548.757,2.572,6.119-.024,5.373-.542,5.993-2.572,6.131Z" transform="translate(-86.23 -181.333)" fill="#bbb"/>
  <path id="路径_13" data-name="路径 13" d="M416.9,390.547l6.547-3.28L416.9,384Z" transform="translate(-408.44 -378.817)" fill="#bbb"/>
</svg>
