<svg xmlns="http://www.w3.org/2000/svg" width="17.164" height="16.972" viewBox="0 0 17.164 16.972">
  <path id="zhihu" d="M80.081,85.788s0-1.389-.677-1.46-2.778,0-2.778,0V80.054H79.76s-.036-1.424-.641-1.424H74.027l.855-2.279a2.357,2.357,0,0,0-1.745.89c-.463.819-1.923,4.914-1.923,4.914s.5.214,1.318-.392a3.419,3.419,0,0,0,1.1-1.674l1.5-.071.036,4.344s-2.6-.036-3.134,0-.819,1.46-.819,1.46h3.953a13.952,13.952,0,0,1-1.353,4.166,12.33,12.33,0,0,1-2.956,3.134A3.348,3.348,0,0,0,73.6,92.91c1.353-.819,2.35-4.344,2.35-4.344l3.169,3.953a6.142,6.142,0,0,0-.036-2.421c-.356-.534-2.208-2.671-2.208-2.671l-.819.712.57-2.35h3.454Zm.819-7.264-.036,12.855h1.282l.463,1.6,2.243-1.6h3.169V78.523H80.9Zm5.7,11.431H85.1l-1.887,1.46-.427-1.46H82.4V79.983h4.2Z" transform="translate(-70.858 -76.351)" fill="#bbb"/>
</svg>
